<svg xmlns="http://www.w3.org/2000/svg" xmlns:xlink="http://www.w3.org/1999/xlink" version="1.1" width="2380" height="1450" style="width: 2380px; height: 1450px; background: #ffffff" viewBox="0 0 2380 1450"><style id="v-3" type="text/css">        .joint-element .scalable * {            vector-effect: non-scaling-stroke;        }    </style><defs joint-selector="defs"><marker id="v-21252848929" orient="auto" overflow="visible" markerUnits="userSpaceOnUse"><path id="v-92" stroke="#444444" fill="#444444" transform="rotate(180)" d="M 20 -10 0 0 20 10 Z"></path></marker></defs><g joint-selector="layers"  transform="matrix(1,0,0,1,0,0)"><g  style="pointer-events: none;"></g><g ></g><g  style="user-select: none;"><!--z-index:0--><!--z-index:1--><!--z-index:2--><!--z-index:3--><!--z-index:4--><!--z-index:5--><!--z-index:6--><!--z-index:7--><!--z-index:8--><!--z-index:9--><!--z-index:10--><!--z-index:11--><!--z-index:12--><!--z-index:13--><!--z-index:14--><g   id="j_18"  transform="translate(20,1406)"><g id="v-160"><text  id="v-161" font-size="24px" xml:space="preserve" y="0.8em" font-weight="normal" text-anchor="start" fill="#444444" pointer-events="none" display="block" font-family="Tahoma, Verdana, Helvetica, Arial"><tspan dy="0" >Friday, August 28, 2026 at 12:08 PM Coordinated Universal Time</tspan></text></g></g><!--z-index:15--><g   id="j_17"  transform="translate(20,1372)"><g id="v-158"><text  id="v-159" font-size="24px" xml:space="preserve" y="0.8em" font-weight="normal" text-anchor="start" fill="#444444" pointer-events="none" display="block" font-family="Tahoma, Verdana, Helvetica, Arial"><tspan dy="0" >Контекст экосистемы alexsoft и внешние системы.</tspan></text></g></g><!--z-index:16--><g   id="j_16"  transform="translate(20,1326)"><g id="v-156"><text  id="v-157" font-size="36px" xml:space="preserve" y="0.8em" font-weight="normal" text-anchor="start" fill="#444444" pointer-events="none" display="block" font-family="Tahoma, Verdana, Helvetica, Arial"><tspan dy="0" >System Landscape View</tspan></text></g></g><!--z-index:17--><g   id="j_19"  transform="translate(200,343)" style=""><g  id="v-165" style="opacity: 1;"><rect  x="0" y="160" width="400" height="240" rx="70" id="v-167" stroke-width="2" pointer-events="visiblePainted" fill="#08427b" stroke="#073b6f" stroke-dasharray="" style="fill: rgb(8, 66, 123); stroke: rgb(7, 59, 111);"></rect><circle  cx="200" cy="88.88888888888889" r="88.88888888888889" id="v-166" stroke-width="2" pointer-events="visiblePainted" fill="#08427b" stroke="#073b6f" stroke-dasharray="" style="fill: rgb(8, 66, 123); stroke: rgb(7, 59, 111);"></circle><line  x1="80" y1="266.6666666666667" x2="80" y2="400" id="v-173" stroke="#073b6f" stroke-width="1" stroke-dasharray="" style="stroke: rgb(7, 59, 111);"></line><line  x1="320" y1="266.6666666666667" x2="320" y2="400" id="v-174" stroke="#073b6f" stroke-width="1" stroke-dasharray="" style="stroke: rgb(7, 59, 111);"></line><text  id="v-168" font-size="33.599999999999994px" xml:space="preserve" y="216.9" font-weight="bold" text-anchor="middle" pointer-events="visible" font-family="Tahoma, Verdana, Helvetica, Arial" fill="#ffffff" dominant-baseline="hanging" transform="matrix(1,0,0,1,200,0)" style="fill: rgb(255, 255, 255);"><tspan dy="0" >Посетитель</tspan></text><text  id="v-169" font-size="16.799999999999997px" xml:space="preserve" y="258.5" text-anchor="middle" font-family="Tahoma, Verdana, Helvetica, Arial" fill="#ffffff" dominant-baseline="hanging" transform="matrix(1,0,0,1,200,0)" style="display: block; fill: rgb(255, 255, 255);"><tspan dy="0" >[Person]</tspan></text><text  id="v-170" font-size="24px" xml:space="preserve" y="290.3" text-anchor="middle" font-family="Tahoma, Verdana, Helvetica, Arial" fill="#ffffff" dominant-baseline="hanging" transform="matrix(1,0,0,1,200,0)" style="display: block; fill: rgb(255, 255, 255);"><tspan dy="0" >Смотрит визитку, портфолио</tspan><tspan dy="1.2em" x="0" >и живые демо продуктов.</tspan></text><g  id="v-171" font-weight="normal" text-anchor="middle" color="#ffffff" transform="matrix(1,0,0,1,197.5,368)" display="none" style="fill: rgb(255, 255, 255);"><g ></g><g ></g><g ></g><g ></g></g><image  id="v-172"></image></g></g><!--z-index:18--><g   id="j_20"  transform="translate(200,793)" style=""><g  id="v-178" style="opacity: 1;"><rect  x="0" y="160" width="400" height="240" rx="70" id="v-180" stroke-width="2" pointer-events="visiblePainted" fill="#08427b" stroke="#073b6f" stroke-dasharray="" style="fill: rgb(8, 66, 123); stroke: rgb(7, 59, 111);"></rect><circle  cx="200" cy="88.88888888888889" r="88.88888888888889" id="v-179" stroke-width="2" pointer-events="visiblePainted" fill="#08427b" stroke="#073b6f" stroke-dasharray="" style="fill: rgb(8, 66, 123); stroke: rgb(7, 59, 111);"></circle><line  x1="80" y1="266.6666666666667" x2="80" y2="400" id="v-186" stroke="#073b6f" stroke-width="1" stroke-dasharray="" style="stroke: rgb(7, 59, 111);"></line><line  x1="320" y1="266.6666666666667" x2="320" y2="400" id="v-187" stroke="#073b6f" stroke-width="1" stroke-dasharray="" style="stroke: rgb(7, 59, 111);"></line><text  id="v-181" font-size="33.599999999999994px" xml:space="preserve" y="202.5" font-weight="bold" text-anchor="middle" pointer-events="visible" font-family="Tahoma, Verdana, Helvetica, Arial" fill="#ffffff" dominant-baseline="hanging" transform="matrix(1,0,0,1,200,0)" style="fill: rgb(255, 255, 255);"><tspan dy="0" >Оператор</tspan></text><text  id="v-182" font-size="16.799999999999997px" xml:space="preserve" y="244.1" text-anchor="middle" font-family="Tahoma, Verdana, Helvetica, Arial" fill="#ffffff" dominant-baseline="hanging" transform="matrix(1,0,0,1,200,0)" style="display: block; fill: rgb(255, 255, 255);"><tspan dy="0" >[Person]</tspan></text><text  id="v-183" font-size="24px" xml:space="preserve" y="275.9" text-anchor="middle" font-family="Tahoma, Verdana, Helvetica, Arial" fill="#ffffff" dominant-baseline="hanging" transform="matrix(1,0,0,1,200,0)" style="display: block; fill: rgb(255, 255, 255);"><tspan dy="0" >Владелец платформы:</tspan><tspan dy="1.2em" x="0" >разрабатывает, деплоит,</tspan><tspan dy="1.2em" x="0" >смотрит метрики и BI.</tspan></text><g  id="v-184" font-weight="normal" text-anchor="middle" color="#ffffff" transform="matrix(1,0,0,1,197.5,368)" display="none" style="fill: rgb(255, 255, 255);"><g ></g><g ></g><g ></g><g ></g></g><image  id="v-185"></image></g></g><!--z-index:19--><g   id="j_21"  transform="translate(1730,143)" style=""><g  id="v-191" style="opacity: 1;"><rect  id="v-192" rx="1" ry="1" stroke-width="2" pointer-events="visiblePainted" fill="#999999" stroke="#8a8a8a" stroke-dasharray="" width="450" height="300" style="fill: rgb(153, 153, 153); stroke: rgb(138, 138, 138);"></rect><text  id="v-193" font-size="33.599999999999994px" xml:space="preserve" y="86.9" font-weight="bold" text-anchor="middle" pointer-events="visible" font-family="Tahoma, Verdana, Helvetica, Arial" fill="#ffffff" dominant-baseline="hanging" transform="matrix(1,0,0,1,225,0)" style="fill: rgb(255, 255, 255);"><tspan dy="0" >LLM API</tspan></text><text  id="v-194" font-size="16.799999999999997px" xml:space="preserve" y="128.5" text-anchor="middle" font-family="Tahoma, Verdana, Helvetica, Arial" fill="#ffffff" dominant-baseline="hanging" transform="matrix(1,0,0,1,225,0)" style="display: block; fill: rgb(255, 255, 255);"><tspan dy="0" >[Software System]</tspan></text><text  id="v-195" font-size="24px" xml:space="preserve" y="160.3" text-anchor="middle" font-family="Tahoma, Verdana, Helvetica, Arial" fill="#ffffff" dominant-baseline="hanging" transform="matrix(1,0,0,1,225,0)" style="display: block; fill: rgb(255, 255, 255);"><tspan dy="0" >Внешние модели (OpenAI /</tspan><tspan dy="1.2em" x="0" >Anthropic и др.).</tspan></text><g  id="v-196" color="#ffffff" transform="matrix(1,0,0,1,222.5,268)" display="none" style="fill: rgb(255, 255, 255);"><g ></g><g ></g><g ></g><g ></g></g><image  id="v-197"></image></g></g><!--z-index:20--><g   id="j_22"  transform="translate(1730,493)" style=""><g  id="v-204" style="opacity: 1;"><rect  id="v-205" rx="1" ry="1" stroke-width="2" pointer-events="visiblePainted" fill="#999999" stroke="#8a8a8a" stroke-dasharray="" width="450" height="300" style="fill: rgb(153, 153, 153); stroke: rgb(138, 138, 138);"></rect><text  id="v-206" font-size="33.599999999999994px" xml:space="preserve" y="86.9" font-weight="bold" text-anchor="middle" pointer-events="visible" font-family="Tahoma, Verdana, Helvetica, Arial" fill="#ffffff" dominant-baseline="hanging" transform="matrix(1,0,0,1,225,0)" style="fill: rgb(255, 255, 255);"><tspan dy="0" >Мессенджеры и почта</tspan></text><text  id="v-207" font-size="16.799999999999997px" xml:space="preserve" y="128.5" text-anchor="middle" font-family="Tahoma, Verdana, Helvetica, Arial" fill="#ffffff" dominant-baseline="hanging" transform="matrix(1,0,0,1,225,0)" style="display: block; fill: rgb(255, 255, 255);"><tspan dy="0" >[Software System]</tspan></text><text  id="v-208" font-size="24px" xml:space="preserve" y="160.3" text-anchor="middle" font-family="Tahoma, Verdana, Helvetica, Arial" fill="#ffffff" dominant-baseline="hanging" transform="matrix(1,0,0,1,225,0)" style="display: block; fill: rgb(255, 255, 255);"><tspan dy="0" >Каналы доставки ответов и</tspan><tspan dy="1.2em" x="0" >постов.</tspan></text><g  id="v-209" color="#ffffff" transform="matrix(1,0,0,1,222.5,268)" display="none" style="fill: rgb(255, 255, 255);"><g ></g><g ></g><g ></g><g ></g></g><image  id="v-210"></image></g></g><!--z-index:21--><g   id="j_23"  transform="translate(1730,843)" style=""><g  id="v-214" style="opacity: 1;"><rect  id="v-215" rx="1" ry="1" stroke-width="2" pointer-events="visiblePainted" fill="#999999" stroke="#8a8a8a" stroke-dasharray="" width="450" height="300" style="fill: rgb(153, 153, 153); stroke: rgb(138, 138, 138);"></rect><text  id="v-216" font-size="33.599999999999994px" xml:space="preserve" y="86.9" font-weight="bold" text-anchor="middle" pointer-events="visible" font-family="Tahoma, Verdana, Helvetica, Arial" fill="#ffffff" dominant-baseline="hanging" transform="matrix(1,0,0,1,225,0)" style="fill: rgb(255, 255, 255);"><tspan dy="0" >GitHub</tspan></text><text  id="v-217" font-size="16.799999999999997px" xml:space="preserve" y="128.5" text-anchor="middle" font-family="Tahoma, Verdana, Helvetica, Arial" fill="#ffffff" dominant-baseline="hanging" transform="matrix(1,0,0,1,225,0)" style="display: block; fill: rgb(255, 255, 255);"><tspan dy="0" >[Software System]</tspan></text><text  id="v-218" font-size="24px" xml:space="preserve" y="160.3" text-anchor="middle" font-family="Tahoma, Verdana, Helvetica, Arial" fill="#ffffff" dominant-baseline="hanging" transform="matrix(1,0,0,1,225,0)" style="display: block; fill: rgb(255, 255, 255);"><tspan dy="0" >Монорепозиторий, Actions,</tspan><tspan dy="1.2em" x="0" >артефакты.</tspan></text><g  id="v-219" color="#ffffff" transform="matrix(1,0,0,1,222.5,268)" display="none" style="fill: rgb(255, 255, 255);"><g ></g><g ></g><g ></g><g ></g></g><image  id="v-220"></image></g></g><!--z-index:22--><g   id="j_24"  transform="translate(940,443)" style=""><g  id="v-224" style="opacity: 1;"><rect  id="v-225" rx="1" ry="1" stroke-width="2" pointer-events="visiblePainted" fill="#1168bd" stroke="#0f5eaa" stroke-dasharray="" width="450" height="300" style="fill: rgb(17, 104, 189); stroke: rgb(15, 94, 170);"></rect><text  id="v-226" font-size="33.599999999999994px" xml:space="preserve" y="72.5" font-weight="bold" text-anchor="middle" pointer-events="visible" font-family="Tahoma, Verdana, Helvetica, Arial" fill="#ffffff" dominant-baseline="hanging" transform="matrix(1,0,0,1,225,0)" style="fill: rgb(255, 255, 255);"><tspan dy="0" >alexsoft</tspan></text><text  id="v-227" font-size="16.799999999999997px" xml:space="preserve" y="114.1" text-anchor="middle" font-family="Tahoma, Verdana, Helvetica, Arial" fill="#ffffff" dominant-baseline="hanging" transform="matrix(1,0,0,1,225,0)" style="display: block; fill: rgb(255, 255, 255);"><tspan dy="0" >[Software System]</tspan></text><text  id="v-228" font-size="24px" xml:space="preserve" y="145.89999999999998" text-anchor="middle" font-family="Tahoma, Verdana, Helvetica, Arial" fill="#ffffff" dominant-baseline="hanging" transform="matrix(1,0,0,1,225,0)" style="display: block; fill: rgb(255, 255, 255);"><tspan dy="0" >Персональная платформа:</tspan><tspan dy="1.2em" x="0" >лендинг, продукты, данные,</tspan><tspan dy="1.2em" x="0" >AI-агенты, DevOps-контур.</tspan></text><g  id="v-229" color="#ffffff" transform="matrix(1,0,0,1,210,268)" display="none" style="fill: rgb(255, 255, 255);"><g  transform="translate(5 0)"><svg xmlns="http://www.w3.org/2000/svg" width="20" height="20" fill="currentColor" viewBox="0 0 16 16"><path fill-rule="evenodd" d="M6.5 12a5.5 5.5 0 1 0 0-11 5.5 5.5 0 0 0 0 11zM13 6.5a6.5 6.5 0 1 1-13 0 6.5 6.5 0 0 1 13 0z"></path><path d="M10.344 11.742c.03.04.062.078.098.115l3.85 3.85a1 1 0 0 0 1.415-1.414l-3.85-3.85a1.007 1.007 0 0 0-.115-.1 6.538 6.538 0 0 1-1.398 1.4z"></path><path fill-rule="evenodd" d="M6.5 3a.5.5 0 0 1 .5.5V6h2.5a.5.5 0 0 1 0 1H7v2.5a.5.5 0 0 1-1 0V7H3.5a.5.5 0 0 1 0-1H6V3.5a.5.5 0 0 1 .5-.5z"></path></svg></g><g ></g><g ></g><g ></g></g><image  id="v-230"></image></g></g><!--z-index:23--><g   id="j_25"  style="opacity: 1;"><path fill="none" cursor="pointer" stroke="transparent" stroke-linecap="round" joint-selector="wrapper" id="v-242" stroke-width="10" stroke-linejoin="round" d="M 600 543 L 760 543 C 766.6666666666665 543 773.3333333333333 543.3333333333333 780 544 L 940 564.52"></path><path fill="none" pointer-events="none" joint-selector="line" id="v-241" stroke="#444444" stroke-width="2" stroke-linejoin="round" stroke-dasharray="8 8" d="M 600 543 L 760 543 C 766.6666666666665 543 773.3333333333333 543.3333333333333 780 544 L 940 564.52" marker-end="url(#v-21252848929)"></path><g id="v-234" ><g id="v-235"  label-idx="0" cursor="move" transform="matrix(1,0,0,1,770,543.25)" style="cursor: default;"><rect joint-selector="rect" id="v-238" fill="#ffffff" rx="3" ry="3" x="-86.36121368408203" y="-43.752777099609375" width="173.4655303955078" height="85.79444885253906" pointer-events="none"  style="display: block;"></rect><text joint-selector="text" id="v-237" font-size="24px" xml:space="preserve" fill="#444444" text-anchor="middle" pointer-events="none" font-family="Tahoma, Verdana, Helvetica, Arial" font-weight="normal"  style="display: block;"><tspan dy="-0.8999999999999999em" >Открывает</tspan><tspan dy="1.2em" x="0" >лендинг,</tspan><tspan dy="1.2em" x="0" >запускает демо</tspan></text></g><g id="v-236"  label-idx="1" cursor="move" transform="matrix(1,0,0,1,760,584.0499877929688)" style="cursor: default;"><rect joint-selector="rect" id="v-240" fill="#ffffff" rx="3" ry="3" x="0" y="0" width="0" height="0"  display="none"></rect><text joint-selector="text" id="v-239" fill="#000000" font-size="14" text-anchor="middle" text-vertical-anchor="middle" pointer-events="none"></text></g></g></g><!--z-index:24--><g   id="j_26"  style="opacity: 1;"><path fill="none" cursor="pointer" stroke="transparent" stroke-linecap="round" joint-selector="wrapper" id="v-254" stroke-width="10" stroke-linejoin="round" d="M 600 930.08 L 760 880 C 766.6666666666665 877.7333333333333 772.6666666666665 874.7333333333333 778 871 L 956.08 743"></path><path fill="none" pointer-events="none" joint-selector="line" id="v-253" stroke="#444444" stroke-width="2" stroke-linejoin="round" stroke-dasharray="8 8" d="M 600 930.08 L 760 880 C 766.6666666666665 877.7333333333333 772.6666666666665 874.7333333333333 778 871 L 956.08 743" marker-end="url(#v-21252848929)"></path><g id="v-246" ><g id="v-247"  label-idx="0" cursor="move" transform="matrix(1,0,0,1,769.6755981445312,875.9619140625)" style="cursor: default;"><rect joint-selector="rect" id="v-250" fill="#ffffff" rx="3" ry="3" x="-86.73882293701172" y="-43.752777099609375" width="173.47764587402344" height="85.79444885253906" pointer-events="none"  style="display: block;"></rect><text joint-selector="text" id="v-249" font-size="24px" xml:space="preserve" fill="#444444" text-anchor="middle" pointer-events="none" font-family="Tahoma, Verdana, Helvetica, Arial" font-weight="normal"  style="display: block;"><tspan dy="-0.8999999999999999em" >Разрабатывает,</tspan><tspan dy="1.2em" x="0" >эксплуатирует,</tspan><tspan dy="1.2em" x="0" >анализирует</tspan></text></g><g id="v-248"  label-idx="1" cursor="move" transform="matrix(1,0,0,1,759.6755981445312,916.7619018554688)" style="cursor: default;"><rect joint-selector="rect" id="v-252" fill="#ffffff" rx="3" ry="3" x="0" y="0" width="0" height="0"  display="none"></rect><text joint-selector="text" id="v-251" fill="#000000" font-size="14" text-anchor="middle" text-vertical-anchor="middle" pointer-events="none"></text></g></g></g><!--z-index:25--><g   id="j_27"  style="opacity: 1;"><path fill="none" cursor="pointer" stroke="transparent" stroke-linecap="round" joint-selector="wrapper" id="v-266" stroke-width="10" stroke-linejoin="round" d="M 600 1017.54 L 760 1037 C 766.6666666666665 1037.9333333333334 773.3333333333333 1038.2666666666667 780 1038 L 1550 1038 C 1556.6666666666665 1038.2666666666667 1563.3333333333333 1037.9333333333334 1570 1037 L 1730 1018.86"></path><path fill="none" pointer-events="none" joint-selector="line" id="v-265" stroke="#444444" stroke-width="2" stroke-linejoin="round" stroke-dasharray="8 8" d="M 600 1017.54 L 760 1037 C 766.6666666666665 1037.9333333333334 773.3333333333333 1038.2666666666667 780 1038 L 1550 1038 C 1556.6666666666665 1038.2666666666667 1563.3333333333333 1037.9333333333334 1570 1037 L 1730 1018.86" marker-end="url(#v-21252848929)"></path><g id="v-258" ><g id="v-259"  label-idx="0" cursor="move" transform="matrix(1,0,0,1,1165.0008544921875,1038)" style="cursor: default;"><rect joint-selector="rect" id="v-262" fill="#ffffff" rx="3" ry="3" x="-61.8641471862793" y="-29.3527774810791" width="123.7282943725586" height="56.99444580078125" pointer-events="none"  style="display: block;"></rect><text joint-selector="text" id="v-261" font-size="24px" xml:space="preserve" fill="#444444" text-anchor="middle" pointer-events="none" font-family="Tahoma, Verdana, Helvetica, Arial" font-weight="normal"  style="display: block;"><tspan dy="-0.3em" >Пушит код,</tspan><tspan dy="1.2em" x="0" >смотрит CI</tspan></text></g><g id="v-260"  label-idx="1" cursor="move" transform="matrix(1,0,0,1,1155.0008544921875,1064.4000244140625)" style="cursor: default;"><rect joint-selector="rect" id="v-264" fill="#ffffff" rx="3" ry="3" x="-2.2737367544323206e-13" y="-1.1368683772161603e-13" width="0" height="0"  display="none"></rect><text joint-selector="text" id="v-263" fill="#000000" font-size="14" text-anchor="middle" text-vertical-anchor="middle" pointer-events="none"></text></g></g></g><!--z-index:26--><g   id="j_28"  style="opacity: 1;"><path fill="none" cursor="pointer" stroke="transparent" stroke-linecap="round" joint-selector="wrapper" id="v-278" stroke-width="10" stroke-linejoin="round" d="M 1362.5 443 L 1552 299 C 1557.3333333333333 295 1563.3333333333333 293 1570 293 L 1730 293"></path><path fill="none" pointer-events="none" joint-selector="line" id="v-277" stroke="#444444" stroke-width="2" stroke-linejoin="round" stroke-dasharray="8 8" d="M 1362.5 443 L 1552 299 C 1557.3333333333333 295 1563.3333333333333 293 1570 293 L 1730 293" marker-end="url(#v-21252848929)"></path><g id="v-270" ><g id="v-271"  label-idx="0" cursor="move" transform="matrix(1,0,0,1,1560.4296875,294.5235290527344)" style="cursor: default;"><rect joint-selector="rect" id="v-274" fill="#ffffff" rx="3" ry="3" x="-94.14929962158203" y="-29.3527774810791" width="188.29859924316406" height="56.99444580078125" pointer-events="none"  style="display: block;"></rect><text joint-selector="text" id="v-273" font-size="24px" xml:space="preserve" fill="#444444" text-anchor="middle" pointer-events="none" font-family="Tahoma, Verdana, Helvetica, Arial" font-weight="normal"  style="display: block;"><tspan dy="-0.3em" >Запросы агентов</tspan><tspan dy="1.2em" x="0" >и RAG</tspan></text></g><g id="v-272"  label-idx="1" cursor="move" transform="matrix(1,0,0,1,1550.4296875,320.92352294921875)" style="cursor: default;"><rect joint-selector="rect" id="v-276" fill="#ffffff" rx="3" ry="3" x="-2.2737367544323206e-13" y="0" width="0" height="0"  display="none"></rect><text joint-selector="text" id="v-275" fill="#000000" font-size="14" text-anchor="middle" text-vertical-anchor="middle" pointer-events="none"></text></g></g></g><!--z-index:27--><g   id="j_29"  style="opacity: 1;"><path fill="none" cursor="pointer" stroke="transparent" stroke-linecap="round" joint-selector="wrapper" id="v-290" stroke-width="10" stroke-linejoin="round" d="M 1390 621.48 L 1550 642 C 1556.6666666666665 642.6666666666666 1563.3333333333333 643 1570 643 L 1730 643"></path><path fill="none" pointer-events="none" joint-selector="line" id="v-289" stroke="#444444" stroke-width="2" stroke-linejoin="round" stroke-dasharray="8 8" d="M 1390 621.48 L 1550 642 C 1556.6666666666665 642.6666666666666 1563.3333333333333 643 1570 643 L 1730 643" marker-end="url(#v-21252848929)"></path><g id="v-282" ><g id="v-283"  label-idx="0" cursor="move" transform="matrix(1,0,0,1,1560,642.75)" style="cursor: default;"><rect joint-selector="rect" id="v-286" fill="#ffffff" rx="3" ry="3" x="-93.7087631225586" y="-29.3527774810791" width="187.4175262451172" height="56.99444580078125" pointer-events="none"  style="display: block;"></rect><text joint-selector="text" id="v-285" font-size="24px" xml:space="preserve" fill="#444444" text-anchor="middle" pointer-events="none" font-family="Tahoma, Verdana, Helvetica, Arial" font-weight="normal"  style="display: block;"><tspan dy="-0.3em" >Публикация</tspan><tspan dy="1.2em" x="0" >постов и ответов</tspan></text></g><g id="v-284"  label-idx="1" cursor="move" transform="matrix(1,0,0,1,1550,669.1500244140625)" style="cursor: default;"><rect joint-selector="rect" id="v-288" fill="#ffffff" rx="3" ry="3" x="0" y="0" width="0" height="0"  display="none"></rect><text joint-selector="text" id="v-287" fill="#000000" font-size="14" text-anchor="middle" text-vertical-anchor="middle" pointer-events="none"></text></g></g></g><!--z-index:28--><g   id="j_30"  style="opacity: 1;"><path fill="none" cursor="pointer" stroke="transparent" stroke-linecap="round" joint-selector="wrapper" id="v-302" stroke-width="10" stroke-linejoin="round" d="M 1373.92 743 L 1552 871 C 1557.3333333333333 874.7333333333333 1563.3333333333333 877.4 1570 879 L 1730 926.7"></path><path fill="none" pointer-events="none" joint-selector="line" id="v-301" stroke="#444444" stroke-width="2" stroke-linejoin="round" stroke-dasharray="8 8" d="M 1373.92 743 L 1552 871 C 1557.3333333333333 874.7333333333333 1563.3333333333333 877.4 1570 879 L 1730 926.7" marker-end="url(#v-21252848929)"></path><g id="v-294" ><g id="v-295"  label-idx="0" cursor="move" transform="matrix(1,0,0,1,1560.3594970703125,875.7373046875)" style="cursor: default;"><rect joint-selector="rect" id="v-298" fill="#ffffff" rx="3" ry="3" x="-88.72124481201172" y="-43.752777099609375" width="178.53463745117188" height="85.79444885253906" pointer-events="none"  style="display: block;"></rect><text joint-selector="text" id="v-297" font-size="24px" xml:space="preserve" fill="#444444" text-anchor="middle" pointer-events="none" font-family="Tahoma, Verdana, Helvetica, Arial" font-weight="normal"  style="display: block;"><tspan dy="-0.8999999999999999em" >CI экспортирует</tspan><tspan dy="1.2em" x="0" >архитектурные</tspan><tspan dy="1.2em" x="0" >артефакты</tspan></text></g><g id="v-296"  label-idx="1" cursor="move" transform="matrix(1,0,0,1,1550.3594970703125,916.5372924804688)" style="cursor: default;"><rect joint-selector="rect" id="v-300" fill="#ffffff" rx="3" ry="3" x="-2.2737367544323206e-13" y="0" width="0" height="0"  display="none"></rect><text joint-selector="text" id="v-299" fill="#000000" font-size="14" text-anchor="middle" text-vertical-anchor="middle" pointer-events="none"></text></g></g></g><!--z-index:29--></g><g  style="user-select: none;"></g><g ></g><g  display="none"></g></g></svg>